<!DOCTYPE svg PUBLIC "-//W3C//DTD SVG 1.1//EN" "http://www.w3.org/Graphics/SVG/1.1/DTD/svg11.dtd">
<svg version="1.1"
    id="Layer_1" 
    xmlns="http://www.w3.org/2000/svg" 
    x="0px" y="0px"
    width="100%" height="100%" 
    enable-background="new 0 0 224px 52px"
    viewBox="0 0 224px 52px">
    <g transform="scale(0.5)">
        <style type="text/css">.st0{fill:#4e7bbd}.st1{fill:#d33b36}.st2{fill:#605fa2}.st3{fill:#39a891}.st4{fill:#1d2127}</style>

        <path class="st0" d="M101 58c-16 0-29-13-29-29S85 0 101 0s29 13 29 29-13 29-29 29zm0-44c-8.3 0-15 6.7-15 15s6.7 15 15 15 15-6.7 15-15-6.7-15-15-15z"/>
        <path class="st1" d="M29 58C13 58 0 45 0 29S13 0 29 0s29 13 29 29-13 29-29 29zm0-44c-8.3 0-15 6.7-15 15s6.7 15 15 15 15-6.7 15-15-6.7-15-15-15z"/>
        <path class="st2" d="M101 130c-16 0-29-13-29-29s13-29 29-29 29 13 29 29-13 29-29 29zm0-44c-8.3 0-15 6.7-15 15s6.7 15 15 15 15-6.7 15-15-6.7-15-15-15z"/>
        <path transform="rotate(-45.001 30.046 99.993)" class="st3" d="M21 68.4h18v63.1H21z"/>
        <path class="st4" d="M178.6 107V23h34.1c8.6 0 15.6 2.4 20.9 7.3 5.3 4.8 8 11.3 8 19.5 0 6.1-1.6 11.2-4.7 15.5-3.2 4.2-7.5 7.2-13 9l17.9 32.8h-17.5l-16.9-31.2h-12.5V107h-16.3zm16.2-45.2h16.6c9.2 0 13.8-4 13.8-12 0-8.1-4.6-12.1-13.8-12.1h-16.6v24.1zM252.1 73.6v-12h27.5v12h-27.5zM296 107V23h35.6c7.4 0 13.4 2.2 17.9 6.5 4.5 4.4 6.8 9.7 6.8 16 0 7-3 12.4-9.1 16v.1c3.6 1.5 6.5 3.9 8.8 7.3 2.3 3.3 3.4 7.3 3.4 11.9 0 8-2.4 14.4-7.3 19.2-4.9 4.6-12.9 7-24.1 7h-32zm16.2-50.2h17.4c3.3 0 5.9-.8 7.7-2.3 1.9-1.6 2.8-3.9 2.8-6.9 0-3.2-.9-5.6-2.8-7.2-1.8-1.6-4.4-2.4-7.8-2.4h-17.4l.1 18.8zm0 35.2h19.6c7.7 0 11.5-3.7 11.5-11.2 0-3.4-1-6.1-3.1-8-2-1.9-4.8-2.8-8.3-2.8h-19.7v22zM370.7 107V43.4h14.8v6.7h.2c1.2-2.4 3-4.3 5.3-5.8 2.4-1.4 4.9-2.2 7.7-2.2 2 0 3.9.4 5.8 1.2l-2.4 15.1c-1.8-.6-3.4-1-4.9-1-7.3 0-10.9 4.8-10.9 14.5V107h-15.6zM449 107v-6.1h-.2c-.2.2-.4.5-.6.9-.2.4-.8 1-1.8 1.9s-2 1.7-3.2 2.4-2.8 1.4-4.9 1.9c-2.1.6-4.3.8-6.7.8-7.7 0-13.4-1.8-17.2-5.5-3.8-3.6-5.7-8.1-5.7-13.4 0-5.5 1.6-9.7 4.9-12.6 3.3-2.9 8.8-5.3 16.7-7.2 7.3-1.8 11.8-3.2 13.7-4.2 1.8-1 2.8-2.5 2.8-4.4s-.9-3.5-2.7-4.8-4.5-1.9-8.1-1.9c-4.2 0-7.3.9-9.1 2.8-1.8 1.9-3.3 4.4-4.3 7.6l-13-5.4c1.5-5.4 4.5-9.7 8.9-13.1s10.2-5.1 17.3-5.1c7.8 0 14.1 2 19.1 6.1s7.4 10.4 7.4 19V107H449zm-15.8-26c-4 1-6.6 2.1-7.9 3.4-1.2 1.3-1.9 2.8-1.9 4.5 0 4.3 3.1 6.5 9.4 6.5 4.7 0 8.3-.9 10.6-2.7 2.4-1.8 3.5-4 3.5-6.7V75h-.2c-.3.6-.7 1.1-1 1.5-.4.4-1.6 1-3.7 1.8-2 .8-4.9 1.7-8.8 2.7zM475.6 34.2V19.4h15.6v14.8h-15.6zm0 72.8V43.4h15.6V107h-15.6zM506 107V43.4h15v6.1h.2c1.8-2.2 4.2-4.1 7.2-5.6s6.2-2.3 9.6-2.3c7 0 12.6 2.1 16.6 6.3s6 10 6 17.5V107H545V69.2c0-4.4-.8-7.7-2.5-9.9s-4.6-3.3-8.6-3.3c-3.8 0-6.8 1.1-9 3.3s-3.2 5.1-3.2 8.8V107H506z"/>
    </g>
</svg>