<!DOCTYPE svg PUBLIC "-//W3C//DTD SVG 1.1//EN" "http://www.w3.org/Graphics/SVG/1.1/DTD/svg11.dtd">
<svg version="1.1"
    id="Layer_1" 
    xmlns="http://www.w3.org/2000/svg" 
    x="0px" y="0px"
    width="100%" height="100%" 
    enable-background="new 0 0 130px 130px"
    viewBox="0 0 130px 130px">
    
    <style type="text/css">.st0{fill:#4e7bbd}.st1{fill:#d33b36}.st2{fill:#605fa2}.st3{fill:#39a891}.st4{fill:#1d2127}</style>

    <path class="st0" d="M101 58c-16 0-29-13-29-29S85 0 101 0s29 13 29 29-13 29-29 29zm0-44c-8.3 0-15 6.7-15 15s6.7 15 15 15 15-6.7 15-15-6.7-15-15-15z"/>
    <path class="st1" d="M29 58C13 58 0 45 0 29S13 0 29 0s29 13 29 29-13 29-29 29zm0-44c-8.3 0-15 6.7-15 15s6.7 15 15 15 15-6.7 15-15-6.7-15-15-15z"/>
    <path class="st2" d="M101 130c-16 0-29-13-29-29s13-29 29-29 29 13 29 29-13 29-29 29zm0-44c-8.3 0-15 6.7-15 15s6.7 15 15 15 15-6.7 15-15-6.7-15-15-15z"/>
    <path transform="rotate(-45.001 30.046 99.993)" class="st3" d="M21 68.4h18v63.1H21z"/>

</svg>